<svg width="44" height="44" viewBox="0 0 44 44" fill="none" xmlns="http://www.w3.org/2000/svg">
<path d="M33.999 22.639C33.874 24.9555 33.0806 27.1861 31.7149 29.0613C30.3491 30.9365 28.4695 32.376 26.3031 33.2057C24.1367 34.0354 21.7764 34.2198 19.5074 33.7367C17.2385 33.2536 15.158 32.1236 13.5176 30.4833C11.8771 28.843 10.7469 26.7627 10.2636 24.4938C9.7802 22.2249 9.96439 19.8645 10.7939 17.698C11.6233 15.5316 13.0626 13.6517 14.9376 12.2858C16.8127 10.9198 19.0432 10.1263 21.3597 10.001C21.9001 9.97162 22.1829 10.6147 21.8961 11.0724C20.9366 12.6075 20.5257 14.4225 20.7306 16.2212C20.9354 18.0199 21.7438 19.696 23.0239 20.9761C24.304 22.2562 25.9801 23.0646 27.7788 23.2695C29.5775 23.4743 31.3925 23.0635 32.9276 22.104C33.3866 21.8171 34.0284 22.0986 33.999 22.639Z" stroke="#161616" stroke-width="1.2" stroke-linecap="round" stroke-linejoin="round"/>
</svg>
